<?xml version="1.0" encoding="UTF-8" standalone="no"?>
<svg
   xmlns:dc="http://purl.org/dc/elements/1.1/"
   xmlns:cc="http://creativecommons.org/ns#"
   xmlns:rdf="http://www.w3.org/1999/02/22-rdf-syntax-ns#"
   xmlns:svg="http://www.w3.org/2000/svg"
   xmlns="http://www.w3.org/2000/svg"
   viewBox="0 0 2267.72 2267.72"
   height="2267.72"
   width="2267.72"
   xml:space="preserve"
   id="svg2"
   version="1.1"><metadata
     id="metadata8"><rdf:RDF><cc:Work
         rdf:about=""><dc:format>image/svg+xml</dc:format><dc:type
           rdf:resource="http://purl.org/dc/dcmitype/StillImage" /></cc:Work></rdf:RDF></metadata><defs
     id="defs6"><clipPath
       id="clipPath18"
       clipPathUnits="userSpaceOnUse"><path
         id="path16"
         d="M 0,1700.787 H 1700.787 V 0 H 0 Z" /></clipPath></defs><g
     transform="matrix(1.3333333,0,0,-1.3333333,0,2267.72)"
     id="g10"><g
       id="g12"><g
         clip-path="url(#clipPath18)"
         id="g14"><g
           transform="translate(477.0109,899.9673)"
           id="g20"><path
             id="path22"
             style="fill:#2b2b2a;fill-opacity:1;fill-rule:nonzero;stroke:none"
             d="m 0,0 c 0.71,-1.57 1.898,-1.675 2.805,-2.134 15.247,-7.703 30.513,-15.368 45.758,-23.075 0.787,-0.397 1.124,-0.672 2.098,-1.626 0.358,-0.35 -1.187,-1.056 -1.867,-1.49 -9.819,-6.277 -19.789,-12.338 -29,-19.508 -12.678,-9.868 -24.34,-20.692 -33.188,-34.328 -7.55,-11.636 -11.78,-24.3 -11.803,-38.078 -0.022,-13.544 5.422,-25.408 13.296,-36.19 12.062,-16.518 28.657,-27.691 46.094,-37.607 7.912,-4.499 16.057,-8.589 24.455,-12.097 38.812,-16.216 79.235,-25.996 120.378,-32.868 31.137,-5.201 62.513,-8.35 94.019,-9.968 26.596,-1.367 53.221,-1.892 79.869,-1.146 17.537,0.491 35.058,1.099 52.559,2.338 32.121,2.275 64.126,5.495 95.951,10.544 18.319,2.906 36.531,6.274 54.672,10.117 46.215,9.79 91.356,22.957 134.649,42.092 23.719,10.483 46.506,22.56 67.082,38.499 12.424,9.623 23.793,20.295 32.548,33.478 2.658,4.003 5.543,8.026 6.488,12.802 1.77,8.948 1.452,17.908 -0.897,26.771 -5.064,19.116 -17.331,33.319 -31.801,45.807 -14.743,12.724 -31.601,22.232 -49.169,30.478 -30.992,14.547 -63.658,24.235 -96.999,31.754 -38.259,8.628 -77.164,14.095 -116.269,17.107 -18.942,1.459 -37.864,3.047 -56.89,3.183 -8.823,0.063 -17.624,0.772 -26.441,1.089 -3.34,0.12 -4.179,-1.056 -4.234,-4.479 -0.818,-51.133 0.052,-102.273 -0.647,-153.406 -0.025,-1.864 -0.05,-3.309 -2.139,-4.378 -18.508,-9.467 -35.873,-20.781 -52.402,-33.342 -10.916,-8.295 -20.181,-18.385 -29.399,-28.479 -3.824,-4.187 -8.054,-7.982 -11.913,-13.351 0,1.911 -0.038,2.74 0.005,3.565 1.473,28.477 2.063,56.986 3.081,85.478 1.233,34.511 2.177,69.027 3.037,103.547 0.333,13.351 0.681,26.702 0.992,40.053 0.037,1.608 0.529,3.481 -2.351,3.284 C 301.539,53.008 280.621,51.964 259.76,50.232 218.225,46.784 176.81,42.186 135.67,35.409 95.41,28.777 55.499,20.621 16.986,6.742 11.274,4.684 5.69,2.269 0,0 m -255.064,-102.549 c 0.685,4.39 1.299,8.792 2.051,13.17 3.778,21.99 13.702,41.165 27.024,58.767 14.189,18.749 31.481,34.256 50.208,48.31 6.801,5.104 13.965,9.676 21.099,14.818 -23.396,15.593 -46.567,31.035 -70.531,47.006 6.641,1.85 12.394,3.611 18.227,5.051 31.247,7.715 62.816,13.816 94.517,19.388 30.497,5.362 61.127,9.824 91.693,14.706 26.741,4.271 53.644,7.437 80.453,11.235 19.314,2.736 38.714,4.707 58.041,7.273 20.482,2.721 41.064,4.477 61.603,6.618 14.986,1.562 30.007,2.795 45.051,3.626 16.226,0.896 32.426,2.287 48.657,3.083 16.676,0.818 33.375,1.198 50.068,1.635 2.537,0.066 3.197,0.908 3.214,3.362 0.166,24.792 0.411,49.583 0.787,74.373 0.006,0.425 -0.336,0.768 -0.761,0.764 -24.539,-0.258 -49.098,0.228 -73.618,-0.547 -12.248,-0.388 -24.518,0.028 -36.724,-0.827 -11.003,-0.77 -22.019,-0.693 -33.019,-1.369 -21.931,-1.35 -43.831,-3.161 -65.223,-8.284 -9.59,-2.297 -18.957,-6.023 -25.546,-14.236 -0.524,-0.653 -1.06,-1.871 -2.262,-1.275 -0.941,0.466 -0.534,1.508 -0.515,2.297 0.507,21.253 4.06,41.904 13.472,61.125 6.239,12.74 16.563,21.801 28.679,28.905 8.173,4.792 16.367,9.504 25.557,12.202 9.535,2.798 19.303,4.444 29.073,6.029 8.06,1.307 16.147,2.456 24.271,3.261 5.712,0.565 11.45,1.346 17.171,1.55 10.413,0.371 20.791,1.278 31.199,1.734 22.434,0.982 44.851,0.145 67.273,0.487 0.851,0.013 1.551,0.7 1.579,1.551 0.946,29.167 -2.597,58.063 -4.724,87.043 -0.864,11.773 -1.704,23.577 -3.704,35.211 -0.565,3.287 0.693,3.563 3.149,3.263 10.89,-1.333 21.763,-1.378 32.659,0.194 12.991,1.875 24.673,7.02 35.626,13.951 14.94,9.455 27.941,21.183 39.578,34.458 0.551,0.629 1.14,1.228 1.752,1.796 0.132,0.123 0.443,0.051 1.04,0.097 -0.924,-6.502 -1.792,-12.946 -2.744,-19.369 -3.422,-23.113 -6.468,-46.28 -8.764,-69.531 -2.235,-22.651 -4.999,-45.255 -6.038,-68.01 -0.27,-5.887 -0.266,-11.787 -0.52,-17.675 -0.092,-2.135 0.501,-2.939 2.789,-2.933 25.39,0.065 50.792,-0.407 76.166,0.219 11.767,0.291 23.55,-0.173 35.284,0.562 11.488,0.719 22.997,0.426 34.475,1.21 10.02,0.684 20.068,1.045 30.065,1.974 12.1,1.126 24.268,2.564 35.972,5.629 8.746,2.291 17.705,5.496 23.763,13.243 0.48,0.612 1.037,1.548 1.996,1.264 1.055,-0.313 0.752,-1.372 0.757,-2.174 0.145,-20.948 -2.84,-41.328 -12.25,-60.322 -4.239,-8.555 -10.676,-15.832 -18.515,-21.283 -11.222,-7.804 -22.893,-14.942 -36.214,-18.75 -9.301,-2.658 -18.834,-4.243 -28.386,-5.584 -11.085,-1.555 -22.215,-2.81 -33.346,-4.011 -6.283,-0.678 -12.603,-1.023 -18.91,-1.452 -29.148,-1.983 -58.341,-1.33 -87.52,-1.448 -6.498,-0.026 -6.483,-0.005 -6.511,-6.669 -0.093,-22.863 -0.134,-45.727 -0.372,-68.588 -0.033,-3.175 0.868,-4.005 3.996,-4.123 16.447,-0.621 32.898,-1.282 49.319,-2.364 14.351,-0.945 28.654,-2.618 42.998,-3.692 15.638,-1.172 31.205,-3.041 46.739,-5.038 21.573,-2.775 43.079,-6.075 64.496,-9.94 25.372,-4.579 50.584,-9.924 75.582,-16.187 19.994,-5.009 39.827,-10.653 59.455,-16.997 26.98,-8.721 53.53,-18.554 79.339,-30.322 23.316,-10.631 45.916,-22.556 67.384,-36.633 20.375,-13.361 39.387,-28.322 55.927,-46.242 18.557,-20.106 32.803,-42.698 38.61,-69.874 1.233,-5.774 2.887,-11.643 2.887,-17.496 -0.164,-4.74 -0.555,-9.247 -0.957,-14.097 -0.057,-0.31 -0.056,-0.64 -0.076,-0.96 -0.781,-12.668 -4.202,-24.679 -9.203,-36.264 -9.669,-22.399 -24.493,-41.024 -42.028,-57.754 -14.395,-13.734 -30.064,-25.818 -46.749,-36.529 -30.908,-19.843 -63.868,-35.621 -98.055,-49.011 -39.38,-15.423 -79.782,-27.4 -120.872,-37.198 -22.351,-5.33 -44.85,-9.967 -67.513,-13.758 -16.111,-2.695 -32.245,-5.258 -48.403,-7.651 -9.92,-1.47 -19.888,-2.667 -29.863,-3.698 -13.672,-1.414 -27.368,-2.604 -41.062,-3.794 -9.434,-0.821 -18.872,-1.672 -28.327,-2.155 -9.101,-0.466 -18.184,-1.204 -27.308,-1.389 -10.929,-0.222 -21.844,-1.018 -32.788,-0.94 -3.349,0.024 -6.741,0.263 -10.045,-0.628 h -51.264 c -1.721,0.732 -3.552,0.549 -5.343,0.592 -10.81,0.263 -21.629,0.319 -32.43,0.772 -9.223,0.387 -18.45,0.716 -27.662,1.502 -12.174,1.038 -24.406,1.405 -36.582,2.436 -13.928,1.179 -27.878,2.36 -41.715,4.284 -17.153,2.386 -34.368,4.267 -51.495,6.911 -31.242,4.824 -62.218,10.958 -92.903,18.429 -52.891,12.878 -104.63,29.317 -154.089,52.343 -31.255,14.552 -61.156,31.394 -88.207,52.982 -17.258,13.772 -33.037,28.958 -45.775,47.106 -11.396,16.234 -19.893,33.737 -23.231,53.472 -0.732,4.324 -1.392,8.659 -2.088,12.988 -0.007,4.298 -0.014,8.516 -0.02,12.814" /></g><g
           transform="translate(623.4779,823.9268)"
           id="g24"><path
             id="path26"
             style="fill:#2b2b2a;fill-opacity:1;fill-rule:nonzero;stroke:none"
             d="m 0,0 c -0.003,-31.155 -25.308,-56.373 -56.503,-56.307 -30.966,0.065 -56.137,25.322 -56.128,56.321 0.01,31.16 25.31,56.374 56.503,56.309 C -25.162,56.258 0.003,31.006 0,0" /></g></g></g></g></svg>